<svg id="development" xmlns="http://www.w3.org/2000/svg" width="168.167" height="168.167" viewBox="0 0 168.167 168.167">
  <path id="Path_29" data-name="Path 29" d="M38.286,14.262V38.286H14.262V14.262H38.286M2.25,2.25V50.3H50.3V2.25Z" transform="translate(-2.25 -2.25)" fill="#2a83e8"/>
  <path id="Path_30" data-name="Path 30" d="M49.536,17.637V41.661H25.512V17.637H49.536M13.5,5.625V53.673H61.548V5.625Z" transform="translate(46.56 12.393)" fill="#2a83e8"/>
  <path id="Path_31" data-name="Path 31" d="M38.286,27.762V51.786H14.262V27.762H38.286M2.25,15.75V63.8H50.3V15.75Z" transform="translate(-2.25 56.321)" fill="#2a83e8"/>
  <path id="Path_32" data-name="Path 32" d="M83.321,11.25V47.286H47.286V83.321H11.25v48.048H131.369V11.25ZM59.3,59.3H83.321V83.321H59.3Zm-12.012,60.06H23.262V95.333H47.286Zm36.036,0H59.3V95.333H83.321Zm36.036,0H95.333V95.333h24.024Zm0-36.036H95.333V59.3h24.024ZM95.333,47.286V23.262h24.024V47.286Z" transform="translate(36.798 36.798)" fill="#f7f7f7"/>
</svg>