<svg id="computer-solid" xmlns="http://www.w3.org/2000/svg" width="189.891" height="134.07" viewBox="0 0 189.891 134.07">
  <path id="Path_33" data-name="Path 33" d="M128.395,26c-1.955,5.027-5.25,8.378-8.992,8.378H72.153c-3.8,0-7.037-3.351-8.992-8.378H1v9.774A13.683,13.683,0,0,0,15.521,48.34H176.37a13.683,13.683,0,0,0,14.521-12.566V26Z" transform="translate(-1 85.701)" fill="#f7f7f7"/>
  <path id="Path_34" data-name="Path 34" d="M20.757,28.34H143.627v78.191h16.755V14.769A8.6,8.6,0,0,0,152,6H12.379A8.6,8.6,0,0,0,4,14.769v91.762H20.757Z" transform="translate(12.754 -6)" fill="#f7f7f7"/>
</svg>