<?xml version="1.0" encoding="utf-8"?>
<!-- Generator: Adobe Illustrator 23.0.4, SVG Export Plug-In . SVG Version: 6.00 Build 0)  -->
<svg version="1.1" id="Layer_1" xmlns="http://www.w3.org/2000/svg" xmlns:xlink="http://www.w3.org/1999/xlink" x="0px" y="0px"
	 viewBox="0 0 32 32" style="enable-background:new 0 0 32 32;" xml:space="preserve">
<style type="text/css">
	.st0{fill:#008AD0;}
	.st1{fill:#333333;}
</style>
<path class="st1" d="M30.164,13.014l-2.675-0.446c-0.234-0.785-0.549-1.542-0.939-2.264l1.577-2.208
	c0.284-0.397,0.239-0.942-0.106-1.288l-2.828-2.828c-0.346-0.347-0.892-0.392-1.288-0.106L21.696,5.45
	c-0.722-0.391-1.479-0.705-2.264-0.939l-0.446-2.675C18.906,1.354,18.489,1,18,1h-4c-0.489,0-0.906,0.354-0.986,0.835l-0.446,2.675
	c-0.784,0.234-1.542,0.548-2.264,0.939L8.096,3.873C7.699,3.587,7.153,3.632,6.808,3.979L3.979,6.808
	C3.634,7.153,3.589,7.698,3.873,8.096l1.577,2.208c-0.391,0.721-0.705,1.479-0.939,2.264l-2.675,0.446C1.354,13.094,1,13.511,1,14v4
	c0,0.489,0.354,0.906,0.836,0.986l2.675,0.446c0.234,0.785,0.549,1.542,0.939,2.264l-1.577,2.208
	c-0.284,0.397-0.239,0.942,0.106,1.288l2.828,2.828c0.346,0.346,0.892,0.39,1.288,0.106l2.208-1.577
	c0.722,0.391,1.479,0.705,2.264,0.939l0.446,2.675C13.094,30.646,13.511,31,14,31h4c0.489,0,0.906-0.354,0.986-0.835l0.446-2.675
	c0.784-0.234,1.542-0.548,2.264-0.939l2.208,1.577c0.396,0.284,0.942,0.24,1.288-0.106l2.828-2.828
	c0.346-0.346,0.391-0.891,0.106-1.288l-1.577-2.208c0.391-0.721,0.705-1.479,0.939-2.264l2.675-0.446C30.646,18.906,31,18.489,31,18
	v-4C31,13.511,30.646,13.094,30.164,13.014z M29,17.153l-2.474,0.413c-0.397,0.066-0.716,0.363-0.809,0.755
	c-0.245,1.028-0.651,2.007-1.207,2.908c-0.211,0.343-0.196,0.779,0.038,1.106l1.459,2.043l-1.631,1.63l-2.042-1.458
	c-0.327-0.235-0.765-0.249-1.105-0.038c-0.903,0.556-1.882,0.962-2.909,1.207c-0.392,0.093-0.688,0.412-0.755,0.808L17.153,29
	h-2.307l-0.412-2.474c-0.066-0.396-0.363-0.715-0.755-0.808c-1.027-0.245-2.006-0.651-2.909-1.207
	c-0.342-0.21-0.779-0.196-1.105,0.038l-2.042,1.458l-1.631-1.63l1.459-2.043c0.234-0.327,0.249-0.763,0.038-1.106
	c-0.556-0.901-0.962-1.88-1.207-2.908c-0.093-0.392-0.411-0.689-0.809-0.755L3,17.153v-2.306l2.474-0.413
	c0.397-0.066,0.716-0.363,0.809-0.755c0.245-1.028,0.651-2.007,1.207-2.908C7.7,10.429,7.686,9.993,7.451,9.666L5.992,7.623
	l1.631-1.63l2.042,1.458c0.326,0.234,0.763,0.248,1.105,0.038c0.903-0.556,1.882-0.962,2.909-1.207
	c0.392-0.093,0.688-0.412,0.755-0.808L14.847,3h2.307l0.412,2.474c0.066,0.396,0.363,0.715,0.755,0.808
	c1.027,0.245,2.006,0.651,2.909,1.207c0.342,0.21,0.778,0.196,1.105-0.038l2.042-1.458l1.631,1.63l-1.459,2.043
	c-0.234,0.327-0.249,0.763-0.038,1.106c0.556,0.901,0.962,1.88,1.207,2.908c0.093,0.392,0.411,0.689,0.809,0.755L29,14.847V17.153z"
	/>
<path class="st0" d="M16,10c-3.309,0-6,2.691-6,6s2.691,6,6,6s6-2.691,6-6S19.309,10,16,10z M16,20c-2.206,0-4-1.794-4-4
	s1.794-4,4-4s4,1.794,4,4S18.206,20,16,20z"/>
</svg>
