<?xml version="1.0" encoding="utf-8"?>
<!-- Generator: Adobe Illustrator 23.0.4, SVG Export Plug-In . SVG Version: 6.00 Build 0)  -->
<svg version="1.1" id="Layer_1" xmlns="http://www.w3.org/2000/svg" xmlns:xlink="http://www.w3.org/1999/xlink" x="0px" y="0px"
	 viewBox="0 0 32 32" style="enable-background:new 0 0 32 32;" xml:space="preserve">
<style type="text/css">
	.st0{fill:#008AD0;}
	.st1{fill:#333333;}
</style>
<g>
	<path class="st1" d="M30,31H2c-0.553,0-1-0.447-1-1V2c0-0.553,0.447-1,1-1s1,0.447,1,1v27h27c0.553,0,1,0.447,1,1S30.553,31,30,31z
		"/>
</g>
<g>
	<path class="st0" d="M21.453,20.395c-0.239,0-0.479-0.085-0.671-0.259c-0.409-0.37-0.441-1.003-0.07-1.412l5.206-5.755
		c0.37-0.409,1.003-0.442,1.412-0.07c0.409,0.37,0.441,1.003,0.07,1.412l-5.206,5.755C21.997,20.283,21.726,20.395,21.453,20.395z"
		/>
</g>
<g>
	<path class="st0" d="M18.462,20.462c-0.256,0-0.512-0.098-0.707-0.293l-3.048-3.048c-0.391-0.391-0.391-1.023,0-1.414
		s1.023-0.391,1.414,0l3.048,3.048c0.391,0.391,0.391,1.023,0,1.414C18.974,20.364,18.718,20.462,18.462,20.462z"/>
</g>
<g>
	<path class="st0" d="M8.559,20.761c-0.278,0-0.555-0.115-0.753-0.342c-0.363-0.415-0.321-1.047,0.095-1.411l3.939-3.446
		c0.414-0.364,1.045-0.322,1.411,0.095c0.363,0.415,0.321,1.047-0.095,1.411l-3.939,3.446C9.027,20.68,8.793,20.761,8.559,20.761z"
		/>
</g>
<g>
	<path class="st0" d="M14,18c-1.654,0-3-1.346-3-3s1.346-3,3-3s3,1.346,3,3S15.654,18,14,18z M14,14c-0.552,0-1,0.448-1,1
		s0.448,1,1,1s1-0.448,1-1S14.552,14,14,14z"/>
</g>
<g>
	<path class="st0" d="M7,24c-1.654,0-3-1.346-3-3s1.346-3,3-3s3,1.346,3,3S8.654,24,7,24z M7,20c-0.552,0-1,0.448-1,1s0.448,1,1,1
		s1-0.448,1-1S7.552,20,7,20z"/>
</g>
<g>
	<path class="st0" d="M20,24c-1.654,0-3-1.346-3-3s1.346-3,3-3s3,1.346,3,3S21.654,24,20,24z M20,20c-0.552,0-1,0.448-1,1
		s0.448,1,1,1s1-0.448,1-1S20.552,20,20,20z"/>
</g>
<g>
	<path class="st0" d="M28,15c-1.654,0-3-1.346-3-3s1.346-3,3-3s3,1.346,3,3S29.654,15,28,15z M28,11c-0.552,0-1,0.448-1,1
		s0.448,1,1,1s1-0.448,1-1S28.552,11,28,11z"/>
</g>
<g>
	<path class="st1" d="M9.4,10.2H8.6c-1.145,0-2.17-0.767-2.493-1.863C5.95,7.807,6.253,7.251,6.782,7.095
		C7.32,6.936,7.87,7.243,8.024,7.771C8.1,8.023,8.336,8.2,8.6,8.2H9.4C9.731,8.2,10,7.931,10,7.6S9.731,7,9.4,7H8.6
		C7.166,7,6,5.834,6,4.4S7.166,1.8,8.6,1.8H9.4c1.121,0,2.112,0.714,2.466,1.777c0.175,0.524-0.108,1.091-0.632,1.265
		c-0.528,0.177-1.09-0.108-1.265-0.632C9.888,3.965,9.659,3.8,9.4,3.8H8.6C8.269,3.8,8,4.069,8,4.4S8.269,5,8.6,5H9.4
		C10.834,5,12,6.166,12,7.6S10.834,10.2,9.4,10.2z"/>
</g>
<g>
	<path class="st1" d="M9,3C8.729,3,8.479,2.899,8.29,2.71C8.1,2.52,8,2.27,8,2c0-0.13,0.02-0.26,0.08-0.38
		C8.13,1.5,8.2,1.39,8.29,1.29c0.05-0.04,0.1-0.09,0.149-0.12C8.5,1.13,8.56,1.1,8.62,1.08C8.68,1.05,8.74,1.03,8.8,1.02
		c0.13-0.029,0.27-0.029,0.39,0C9.26,1.03,9.319,1.05,9.38,1.08C9.439,1.1,9.5,1.13,9.55,1.17c0.06,0.03,0.11,0.08,0.16,0.12
		C9.8,1.39,9.87,1.5,9.92,1.62S10,1.87,10,2c0,0.27-0.101,0.52-0.29,0.71C9.52,2.899,9.27,3,9,3z"/>
</g>
<g>
	<path class="st1" d="M9,11c-0.271,0-0.521-0.101-0.71-0.29C8.1,10.52,8,10.27,8,10c0-0.26,0.109-0.521,0.29-0.71
		c0.05-0.04,0.1-0.09,0.149-0.12C8.5,9.13,8.56,9.1,8.62,9.08C8.68,9.05,8.74,9.03,8.8,9.02C9,8.979,9.2,9,9.38,9.08
		C9.5,9.13,9.609,9.2,9.71,9.29c0.09,0.1,0.16,0.2,0.21,0.33C9.97,9.74,10,9.87,10,10c0,0.27-0.101,0.52-0.29,0.71
		C9.52,10.899,9.27,11,9,11z"/>
</g>
</svg>
