<?xml version="1.0" encoding="utf-8"?>
<!-- Generator: Adobe Illustrator 23.0.4, SVG Export Plug-In . SVG Version: 6.00 Build 0)  -->
<svg version="1.1" id="Layer_1" xmlns="http://www.w3.org/2000/svg" xmlns:xlink="http://www.w3.org/1999/xlink" x="0px" y="0px"
	 viewBox="0 0 32 32" style="enable-background:new 0 0 32 32;" xml:space="preserve">
<style type="text/css">
	.st0{fill:#008AD0;}
	.st1{fill:#333333;}
</style>
<g>
	<path class="st1" d="M19,29h-6c-0.553,0-1-0.448-1-1v-5c0-0.552,0.447-1,1-1h6c0.553,0,1,0.448,1,1v5C20,28.552,19.553,29,19,29z
		 M14,27h4v-3h-4V27z"/>
</g>
<g>
	<path class="st1" d="M8,29H2c-0.553,0-1-0.448-1-1v-5c0-0.552,0.447-1,1-1h6c0.553,0,1,0.448,1,1v5C9,28.552,8.553,29,8,29z M3,27
		h4v-3H3V27z"/>
</g>
<g>
	<path class="st1" d="M30,29h-6c-0.553,0-1-0.448-1-1v-5c0-0.552,0.447-1,1-1h6c0.553,0,1,0.448,1,1v5C31,28.552,30.553,29,30,29z
		 M25,27h4v-3h-4V27z"/>
</g>
<g>
	<path class="st1" d="M27,24c-0.553,0-1-0.448-1-1v-6H6v6c0,0.552-0.447,1-1,1s-1-0.448-1-1v-7c0-0.552,0.447-1,1-1h22
		c0.553,0,1,0.448,1,1v7C28,23.552,27.553,24,27,24z"/>
</g>
<g>
	<path class="st1" d="M16,24c-0.553,0-1-0.448-1-1V9c0-0.552,0.447-1,1-1s1,0.448,1,1v14C17,23.552,16.553,24,16,24z"/>
</g>
<g>
	<path class="st0" d="M19,9h-6c-0.553,0-1-0.448-1-1V3c0-0.552,0.447-1,1-1h6c0.553,0,1,0.448,1,1v5C20,8.552,19.553,9,19,9z M14,7
		h4V4h-4V7z"/>
</g>
</svg>
