<?xml version="1.0" encoding="utf-8"?>
<!-- Generator: Adobe Illustrator 23.0.4, SVG Export Plug-In . SVG Version: 6.00 Build 0)  -->
<svg version="1.1" id="Layer_1" xmlns="http://www.w3.org/2000/svg" xmlns:xlink="http://www.w3.org/1999/xlink" x="0px" y="0px"
	 viewBox="0 0 32 32" style="enable-background:new 0 0 32 32;" xml:space="preserve">
<style type="text/css">
	.st0{fill:#008AD0;}
	.st1{fill:#333333;}
</style>
<g>
	<g>
		<path class="st1" d="M28,28H4c-1.654,0-3-1.346-3-3v-1.5c0-0.552,0.447-1,1-1h28c0.553,0,1,0.448,1,1V25
			C31,26.654,29.654,28,28,28z M3,24.5V25c0,0.551,0.448,1,1,1h24c0.552,0,1-0.449,1-1v-0.5H3z"/>
	</g>
	<g>
		<path class="st1" d="M29,24.5H3c-0.553,0-1-0.448-1-1V7c0-1.103,0.897-2,2-2h24c1.103,0,2,0.897,2,2v16.5
			C30,24.052,29.553,24.5,29,24.5z M4,22.5h24V7H4V22.5z"/>
	</g>
</g>
<path class="st0" d="M25.997,13.929c0-0.001-0.001-0.002-0.001-0.003c-0.001-0.01-0.005-0.018-0.006-0.028
	c-0.011-0.109-0.042-0.212-0.086-0.309c-0.014-0.031-0.032-0.058-0.05-0.088c-0.043-0.074-0.094-0.141-0.155-0.201
	c-0.025-0.025-0.047-0.049-0.074-0.071c-0.092-0.075-0.193-0.139-0.309-0.178l-3-1c-0.528-0.175-1.09,0.109-1.265,0.632
	c-0.175,0.524,0.108,1.09,0.632,1.265l0.71,0.236l-5.051,2.526l-1.511-2.266c-0.28-0.419-0.828-0.565-1.279-0.34l-8,4
	c-0.494,0.247-0.694,0.848-0.447,1.342C6.281,19.798,6.634,20,7.001,20c0.15,0,0.303-0.034,0.446-0.105l7.21-3.605l1.511,2.266
	c0.28,0.419,0.828,0.566,1.279,0.34l5.841-2.921l-0.237,0.71c-0.175,0.524,0.108,1.09,0.632,1.265C23.789,17.984,23.896,18,24,18
	c0.419,0,0.809-0.265,0.948-0.684l1-3c0.004-0.012,0.001-0.024,0.004-0.036C25.986,14.168,26.006,14.051,25.997,13.929z"/>
<g>
	<path class="st1" d="M16,10h-4c-0.553,0-1-0.448-1-1s0.447-1,1-1h4c0.553,0,1,0.448,1,1S16.553,10,16,10z"/>
</g>
<g>
	<path class="st1" d="M20,10h-1c-0.553,0-1-0.448-1-1s0.447-1,1-1h1c0.553,0,1,0.448,1,1S20.553,10,20,10z"/>
</g>
</svg>
