<?xml version="1.0" encoding="utf-8"?>
<!-- Generator: Adobe Illustrator 23.0.4, SVG Export Plug-In . SVG Version: 6.00 Build 0)  -->
<svg version="1.1" id="Layer_1" xmlns="http://www.w3.org/2000/svg" xmlns:xlink="http://www.w3.org/1999/xlink" x="0px" y="0px"
	 viewBox="0 0 32 32" style="enable-background:new 0 0 32 32;" xml:space="preserve">
<style type="text/css">
	.st0{fill:#008AD0;}
	.st1{fill:#333333;}
</style>
<g>
	<path class="st1" d="M23,31H9c-1.654,0-3-1.346-3-3V4c0-1.654,1.346-3,3-3h14c1.654,0,3,1.346,3,3v24C26,29.654,24.654,31,23,31z
		 M9,3C8.449,3,8,3.448,8,4v24c0,0.552,0.449,1,1,1h14c0.551,0,1-0.448,1-1V4c0-0.552-0.449-1-1-1H9z"/>
</g>
<g>
	<path class="st1" d="M25,28H7c-0.552,0-1-0.447-1-1s0.448-1,1-1h18c0.552,0,1,0.447,1,1S25.552,28,25,28z"/>
</g>
<g>
	<path class="st1" d="M18,6h-4c-0.552,0-1-0.447-1-1s0.448-1,1-1h4c0.552,0,1,0.447,1,1S18.552,6,18,6z"/>
</g>
<path class="st0" d="M19,17.6c0-1.434-1.167-2.6-2.6-2.6h-0.8c-0.331,0-0.6-0.269-0.6-0.6s0.269-0.601,0.6-0.601h0.8
	c0.259,0,0.488,0.165,0.57,0.41c0.174,0.523,0.739,0.809,1.265,0.632c0.524-0.174,0.807-0.74,0.632-1.265
	c-0.292-0.877-1.02-1.508-1.893-1.706c-0.03-0.214-0.115-0.424-0.264-0.581c-0.1-0.09-0.2-0.16-0.33-0.21
	c-0.24-0.101-0.52-0.101-0.76,0c-0.12,0.05-0.23,0.12-0.33,0.21c-0.149,0.157-0.233,0.365-0.263,0.578
	C13.869,12.131,13,13.164,13,14.4c0,1.434,1.167,2.6,2.6,2.6h0.8c0.331,0,0.6,0.269,0.6,0.6S16.731,18.2,16.4,18.2h-0.8
	c-0.264,0-0.501-0.177-0.576-0.43c-0.157-0.53-0.712-0.835-1.243-0.676c-0.529,0.156-0.832,0.713-0.675,1.242
	c0.268,0.908,1.02,1.582,1.918,1.79c0.027,0.219,0.107,0.424,0.266,0.583c0.1,0.09,0.21,0.16,0.33,0.21C15.74,20.97,15.87,21,16,21
	c0.13,0,0.26-0.03,0.38-0.08s0.23-0.12,0.33-0.21c0.09-0.101,0.16-0.21,0.21-0.33c0.032-0.078,0.039-0.164,0.052-0.248
	C18.13,19.87,19,18.836,19,17.6z"/>
</svg>
