<?xml version="1.0" encoding="utf-8"?>
<!-- Generator: Adobe Illustrator 23.0.4, SVG Export Plug-In . SVG Version: 6.00 Build 0)  -->
<svg version="1.1" id="Layer_1" xmlns="http://www.w3.org/2000/svg" xmlns:xlink="http://www.w3.org/1999/xlink" x="0px" y="0px"
	 viewBox="0 0 32 32" style="enable-background:new 0 0 32 32;" xml:space="preserve">
<style type="text/css">
	.st0{fill:#008AD0;}
	.st1{fill:#333333;}
</style>
<g>
	<path class="st1" d="M29,31H3c-1.103,0-2-0.897-2-2V10c0-1.103,0.897-2,2-2h26c1.103,0,2,0.897,2,2v19C31,30.103,30.103,31,29,31z
		 M3,10v19h26.001L29,10H3z"/>
</g>
<g>
	<path class="st1" d="M24,10H8c-0.553,0-1-0.448-1-1V5c0-2.206,1.794-4,4-4h10c2.206,0,4,1.794,4,4v4C25,9.552,24.553,10,24,10z
		 M9,8h14V5c0-1.103-0.897-2-2-2H11C9.897,3,9,3.897,9,5V8z"/>
</g>
<path class="st0" d="M29,8H3c-1.103,0-2,0.897-2,2v4c0,2.757,2.243,5,5,5v1c0,1.654,1.346,3,3,3s3-1.346,3-3v-1h8v1
	c0,1.654,1.346,3,3,3s3-1.346,3-3v-1c2.757,0,5-2.243,5-5v-4C31,8.897,30.103,8,29,8z M10,20c0,0.551-0.448,1-1,1s-1-0.449-1-1v-1h2
	V20z M24,20c0,0.551-0.448,1-1,1s-1-0.449-1-1v-1h2V20z M29,14c0,1.654-1.346,3-3,3h-1h-4H11H7H6c-1.654,0-3-1.346-3-3v-4h26V14z"/>
</svg>
